<svg xmlns="http://www.w3.org/2000/svg" xmlns:xlink="http://www.w3.org/1999/xlink" width="2000" zoomAndPan="magnify" viewBox="0 0 1500 1499.999933" height="2000" preserveAspectRatio="xMidYMid meet" version="1.0"><path fill="#ffffff" d="M 772.886719 157.050781 C 742.351562 158.125 713.609375 160.625 692.476562 164.050781 C 684.65625 165.316406 682.988281 165.609375 679.296875 166.359375 C 678.46875 166.527344 676.953125 166.769531 675.933594 166.898438 C 674.296875 167.105469 663.863281 169.339844 648.230469 172.828125 C 641.285156 174.382812 619.957031 179.71875 614.820312 181.1875 C 612.503906 181.851562 608.460938 183.011719 605.835938 183.761719 C 603.210938 184.515625 600.683594 185.234375 600.21875 185.363281 C 593.089844 187.3125 557.957031 198.917969 555.804688 200.03125 C 554.914062 200.488281 553.996094 200.894531 553.757812 200.929688 C 553.261719 201 553.367188 200.960938 548.203125 202.730469 C 545.996094 203.484375 543.34375 204.492188 542.308594 204.972656 C 541.265625 205.449219 536.628906 207.34375 531.996094 209.179688 C 519.046875 214.3125 507.023438 219.355469 503.917969 220.960938 C 502.375 221.757812 500.9375 222.417969 500.726562 222.4375 C 500.515625 222.449219 499 223.140625 497.355469 223.96875 C 495.714844 224.800781 487.171875 229.035156 478.371094 233.371094 C 469.566406 237.714844 461.105469 241.980469 459.558594 242.851562 C 458.015625 243.726562 453.59375 246.167969 449.734375 248.28125 C 429.566406 259.316406 401.152344 277.335938 381.171875 291.757812 C 374.941406 296.253906 357.125 309.652344 355.957031 310.71875 C 355.496094 311.140625 354.207031 312.1875 353.089844 313.035156 C 351.980469 313.882812 349.957031 315.5 348.601562 316.621094 C 347.242188 317.742188 342.972656 321.257812 339.113281 324.441406 C 329.890625 332.035156 314.0625 346.078125 305.988281 353.835938 C 285.859375 373.171875 284.011719 375.195312 288.855469 372.597656 C 290.054688 371.953125 295.472656 369.667969 300.898438 367.507812 C 306.320312 365.351562 311.515625 363.238281 312.441406 362.8125 C 313.367188 362.386719 318.3125 360.410156 323.425781 358.421875 C 328.539062 356.433594 333.847656 354.292969 335.21875 353.671875 C 339.695312 351.632812 366.414062 341.339844 374.207031 338.652344 C 376.371094 337.90625 378.644531 337.050781 379.261719 336.746094 C 379.878906 336.449219 381.394531 335.84375 382.632812 335.410156 C 383.867188 334.976562 389.175781 333.105469 394.421875 331.253906 C 424.503906 320.648438 451.84375 312.289062 474.160156 306.863281 C 487.332031 303.664062 499.007812 301.042969 503.917969 300.183594 C 505.773438 299.855469 507.921875 299.371094 508.695312 299.101562 C 509.464844 298.835938 511.105469 298.480469 512.34375 298.316406 C 513.578125 298.152344 515.21875 297.878906 515.992188 297.707031 C 518.492188 297.152344 536.285156 294.117188 543.785156 292.964844 C 563.414062 289.953125 601.644531 285.660156 624.085938 283.949219 C 633.125 283.261719 637.015625 283.039062 659.742188 281.929688 C 669.425781 281.453125 715.824219 281.460938 724.316406 281.933594 C 727.867188 282.132812 733.046875 282.417969 735.824219 282.566406 C 738.605469 282.714844 744.417969 283.09375 748.742188 283.410156 C 755.761719 283.921875 760.324219 284.316406 771.765625 285.390625 C 787.105469 286.835938 815.179688 290.992188 832.410156 294.371094 C 842.183594 296.289062 844.328125 296.753906 854.585938 299.183594 C 862.671875 301.101562 881.660156 305.964844 885.191406 307.019531 C 910.402344 314.558594 914.699219 315.910156 915.53125 316.558594 C 915.847656 316.808594 916.734375 317.140625 917.496094 317.300781 C 918.640625 317.535156 925.542969 320.039062 937.695312 324.625 C 947.242188 328.226562 956.542969 332.101562 962.917969 335.128906 C 980.183594 343.335938 994.566406 350.804688 1002.828125 355.855469 C 1003.292969 356.140625 1006.429688 358.039062 1009.804688 360.078125 C 1015.097656 363.285156 1021.109375 367.222656 1028.660156 372.429688 C 1033.175781 375.546875 1039.921875 380.539062 1045.476562 384.875 C 1050.609375 388.882812 1053.09375 390.925781 1060.667969 397.390625 C 1066.871094 402.683594 1075.910156 411.527344 1087.050781 423.207031 C 1089.707031 425.988281 1101.121094 439.324219 1103.34375 442.238281 C 1104.113281 443.25 1105.039062 444.394531 1105.394531 444.777344 C 1106.492188 445.96875 1115.585938 458.644531 1118.3125 462.792969 C 1128.074219 477.644531 1130.84375 482.234375 1136.433594 492.835938 C 1141.390625 502.234375 1147.394531 514.472656 1148.808594 518.0625 C 1149.394531 519.550781 1150.371094 521.878906 1150.976562 523.226562 C 1152.433594 526.480469 1158.136719 541.027344 1158.652344 542.808594 C 1158.871094 543.582031 1159.386719 544.972656 1159.792969 545.898438 C 1165.414062 558.785156 1172.597656 591.914062 1174.949219 615.808594 C 1175.144531 617.8125 1175.402344 620.214844 1175.519531 621.140625 C 1176.832031 631.546875 1176.816406 672.820312 1175.5 684.992188 C 1175.355469 686.316406 1174.972656 690.179688 1174.652344 693.578125 C 1172.640625 714.613281 1166.871094 748.167969 1163.449219 758.710938 C 1162.46875 761.726562 1160.761719 768.121094 1159.476562 773.59375 C 1157.625 781.472656 1149.667969 805.898438 1146.308594 814.023438 C 1139.632812 830.175781 1128.359375 852.675781 1122.910156 860.738281 C 1121.722656 862.5 1120.75 864.089844 1120.75 864.273438 C 1120.75 864.601562 1111.984375 877.882812 1108.332031 883.089844 C 1107.359375 884.476562 1105.140625 887.398438 1103.40625 889.578125 C 1101.671875 891.757812 1099.625 894.390625 1098.847656 895.425781 C 1098.078125 896.460938 1097.191406 897.582031 1096.882812 897.917969 C 1096.570312 898.253906 1095.1875 899.921875 1093.804688 901.621094 C 1086.726562 910.316406 1059.996094 937.769531 1050.324219 946.277344 C 1044.707031 951.21875 1041.878906 953.746094 1039.976562 955.527344 C 1038.089844 957.292969 1034.453125 960.402344 1031.972656 962.375 C 1026.945312 966.367188 1022.867188 969.652344 1022.160156 970.28125 C 1018.894531 973.175781 1000.277344 986.90625 998.195312 987.957031 C 997.347656 988.390625 996.652344 988.988281 996.652344 989.292969 C 996.652344 989.59375 996.417969 989.699219 996.132812 989.519531 C 995.84375 989.34375 995.460938 989.4375 995.28125 989.730469 C 994.824219 990.46875 986.183594 996.261719 979.808594 1000.101562 C 976.875 1001.871094 974.09375 1003.550781 973.632812 1003.828125 C 973.167969 1004.109375 970.261719 1005.742188 967.171875 1007.457031 C 964.085938 1009.175781 961.179688 1010.8125 960.714844 1011.101562 C 958.597656 1012.425781 948.359375 1017.839844 945.835938 1018.972656 C 944.289062 1019.671875 941.257812 1021.070312 939.097656 1022.078125 C 916.207031 1032.8125 884.9375 1043.972656 869.75 1046.828125 C 868.976562 1046.972656 867.207031 1047.460938 865.820312 1047.90625 C 858.382812 1050.292969 833.773438 1054.5 821.460938 1055.488281 C 791.125 1057.921875 770.28125 1047.632812 757.535156 1023.933594 C 751.460938 1012.636719 748.636719 994.664062 750.886719 981.636719 C 753.242188 967.976562 759.382812 950.777344 767.425781 935.3125 C 772.308594 925.917969 776.257812 918.546875 778.308594 915 C 779.496094 912.9375 780.46875 911.132812 780.46875 910.984375 C 780.46875 910.839844 782.363281 907.515625 784.679688 903.605469 C 786.996094 899.691406 788.890625 896.410156 788.890625 896.308594 C 788.890625 896.117188 801.125 874.644531 802.976562 871.578125 C 803.535156 870.652344 805.394531 867.367188 807.109375 864.28125 C 808.824219 861.191406 810.976562 857.402344 811.894531 855.859375 C 812.8125 854.3125 814.234375 851.785156 815.054688 850.242188 C 815.875 848.699219 818.617188 843.898438 821.152344 839.570312 C 823.6875 835.25 828.042969 827.667969 830.828125 822.726562 C 838.113281 809.816406 839.863281 806.757812 841.605469 803.917969 C 843.054688 801.546875 844.71875 798.59375 848.414062 791.8125 C 849.269531 790.253906 851.417969 786.464844 853.195312 783.390625 C 854.976562 780.320312 857.0625 776.667969 857.835938 775.277344 C 858.609375 773.890625 859.667969 772.121094 860.1875 771.347656 C 860.707031 770.574219 862.097656 768.175781 863.277344 766.011719 C 864.457031 763.851562 866.175781 760.695312 867.105469 758.996094 C 868.03125 757.292969 871.027344 752.074219 873.761719 747.394531 C 876.496094 742.710938 878.734375 738.746094 878.734375 738.578125 C 878.734375 738.410156 879.492188 737.148438 880.417969 735.777344 C 881.34375 734.40625 882.101562 733.125 882.101562 732.933594 C 882.101562 732.738281 882.695312 731.636719 883.421875 730.484375 C 884.144531 729.335938 886.457031 725.234375 888.554688 721.371094 C 890.652344 717.511719 892.554688 714.226562 892.777344 714.070312 C 893 713.917969 893.359375 713.222656 893.574219 712.527344 C 893.792969 711.835938 894.207031 711.265625 894.496094 711.265625 C 894.78125 711.265625 895.015625 711.03125 895.015625 710.738281 C 895.015625 710.453125 895.742188 709 896.628906 707.511719 C 900.886719 700.367188 912.425781 679.707031 912.425781 679.230469 C 912.425781 678.9375 912.679688 678.695312 912.988281 678.695312 C 913.292969 678.695312 913.546875 678.464844 913.546875 678.175781 C 913.546875 677.894531 914.773438 675.554688 916.269531 672.984375 C 917.769531 670.410156 922.222656 662.625 926.167969 655.675781 C 933.085938 643.5 933.996094 641.898438 936.664062 637.285156 C 937.332031 636.128906 938.582031 633.882812 939.441406 632.300781 C 940.296875 630.714844 942.949219 626.039062 945.335938 621.914062 C 957.839844 600.238281 961.222656 586.367188 958.207031 569.132812 C 952.445312 536.246094 923.355469 515.550781 874.523438 509.589844 C 866.355469 508.597656 833.601562 508.582031 825.109375 509.574219 C 821.710938 509.96875 817.792969 510.410156 816.40625 510.554688 C 809.949219 511.21875 800.558594 512.523438 792.257812 513.917969 C 789.328125 514.414062 785.523438 515.015625 783.8125 515.261719 C 782.101562 515.507812 780.171875 515.875 779.519531 516.082031 C 778.871094 516.289062 777.617188 516.570312 776.738281 516.707031 C 774.414062 517.074219 761.777344 520.03125 752.671875 522.339844 C 744.527344 524.402344 742.460938 524.964844 728.808594 528.804688 C 724.332031 530.0625 719.402344 531.4375 717.859375 531.855469 C 716.316406 532.277344 714.292969 532.914062 713.367188 533.273438 C 712.441406 533.636719 711.050781 534.046875 710.277344 534.1875 C 709.507812 534.328125 706.222656 535.304688 702.976562 536.347656 C 699.734375 537.390625 694.050781 539.175781 690.34375 540.304688 C 669.277344 546.753906 656.359375 550.914062 625.769531 561.09375 C 596.644531 570.789062 584.8125 574.875 584.257812 575.429688 C 584.097656 575.589844 584.941406 575.78125 586.125 575.851562 C 587.316406 575.917969 588.761719 576.066406 589.339844 576.171875 C 589.917969 576.28125 591.53125 576.542969 592.921875 576.757812 C 625.476562 581.761719 647.398438 591.722656 656.59375 605.6875 C 666.863281 621.28125 660.800781 655.570312 641.089844 693.296875 C 632.933594 708.914062 621.726562 728.792969 620.886719 729.140625 C 620.640625 729.242188 620.433594 729.585938 620.433594 729.898438 C 620.433594 730.214844 619.730469 731.523438 618.863281 732.800781 C 618 734.082031 617.140625 735.507812 616.960938 735.972656 C 616.636719 736.789062 609.800781 748.316406 608.636719 750.011719 C 607.953125 751.003906 605.632812 754.785156 594.265625 773.4375 C 589.601562 781.089844 583.691406 790.761719 581.128906 794.929688 C 578.566406 799.101562 576.1875 803.015625 575.839844 803.636719 C 575.121094 804.929688 568.480469 816.046875 566.8125 818.765625 C 562.769531 825.335938 554.710938 838.773438 553.828125 840.414062 C 553.246094 841.496094 550.75 845.605469 548.28125 849.542969 C 543.074219 857.84375 543.367188 857.371094 537.933594 866.363281 C 535.644531 870.160156 532.105469 875.839844 530.074219 878.988281 C 525.417969 886.207031 516.9375 900.066406 515.367188 903.027344 C 514.710938 904.257812 513.449219 906.265625 512.558594 907.484375 C 511.664062 908.707031 510.9375 910.035156 510.9375 910.433594 C 510.9375 910.839844 510.746094 911.164062 510.507812 911.164062 C 510.273438 911.164062 509.832031 911.648438 509.527344 912.234375 C 508.875 913.488281 505.734375 918.988281 501.640625 926.046875 C 500.023438 928.828125 498.210938 931.984375 497.609375 933.066406 C 497.007812 934.144531 495.039062 937.558594 493.238281 940.644531 C 489.875 946.417969 472.933594 979.773438 470.5625 985.285156 C 469.835938 986.984375 468.90625 989.132812 468.496094 990.058594 C 466.382812 994.863281 460.402344 1009.574219 460.402344 1009.964844 C 460.402344 1010.210938 459.90625 1011.535156 459.300781 1012.90625 C 453.828125 1025.273438 451.09375 1050.324219 453.351562 1067.3125 C 457.109375 1095.519531 473.980469 1122.601562 498.304688 1139.445312 C 506.605469 1145.199219 508.679688 1146.425781 516.566406 1150.273438 C 558.628906 1170.792969 608.675781 1178.609375 672.375 1174.613281 C 694.621094 1173.21875 716.796875 1171.34375 729.652344 1169.769531 C 746.238281 1167.738281 752.664062 1166.886719 761.9375 1165.492188 C 767.960938 1164.589844 774.402344 1163.582031 776.253906 1163.257812 C 778.109375 1162.9375 780.265625 1162.574219 781.042969 1162.460938 C 781.824219 1162.347656 784.476562 1161.863281 786.9375 1161.390625 C 789.402344 1160.914062 796.21875 1159.609375 802.085938 1158.484375 C 817 1155.636719 837.453125 1151.273438 848.410156 1148.601562 C 856.785156 1146.558594 861.949219 1145.324219 865.765625 1144.453125 C 866.507812 1144.28125 867.519531 1143.925781 868.011719 1143.664062 C 868.503906 1143.402344 869.101562 1143.179688 869.335938 1143.171875 C 870.351562 1143.144531 873.585938 1142.382812 875.925781 1141.621094 C 877.316406 1141.167969 883.128906 1139.527344 888.839844 1137.972656 C 902.976562 1134.128906 915.144531 1130.503906 929.269531 1125.929688 C 942.664062 1121.59375 972.109375 1111.554688 978.125 1109.273438 C 978.894531 1108.984375 979.59375 1108.765625 979.671875 1108.792969 C 979.753906 1108.820312 980.597656 1108.441406 981.554688 1107.949219 C 982.507812 1107.453125 983.757812 1106.960938 984.332031 1106.851562 C 984.910156 1106.738281 986.210938 1106.269531 987.226562 1105.808594 C 988.242188 1105.347656 996.523438 1102.019531 1005.640625 1098.410156 C 1014.75 1094.800781 1023.71875 1091.136719 1025.570312 1090.269531 C 1028.574219 1088.851562 1032.957031 1086.90625 1033.714844 1086.644531 C 1033.996094 1086.546875 1035.433594 1085.890625 1049.996094 1079.179688 C 1059.011719 1075.027344 1077.644531 1065.65625 1087.621094 1060.257812 C 1099.554688 1053.800781 1100.722656 1053.144531 1102.726562 1051.78125 C 1103.824219 1051.035156 1104.929688 1050.425781 1105.179688 1050.425781 C 1105.433594 1050.425781 1105.941406 1050.160156 1106.316406 1049.839844 C 1106.683594 1049.519531 1109.265625 1047.96875 1112.046875 1046.394531 C 1116.371094 1043.945312 1127.640625 1037.074219 1130.296875 1035.269531 C 1130.757812 1034.957031 1136.0625 1031.421875 1142.089844 1027.421875 C 1153.992188 1019.515625 1157.292969 1017.238281 1160.152344 1014.964844 C 1161.179688 1014.148438 1165.21875 1011.117188 1169.121094 1008.226562 C 1180.121094 1000.085938 1182.421875 998.3125 1187.851562 993.765625 C 1190.628906 991.4375 1193.027344 989.394531 1193.183594 989.226562 C 1193.480469 988.90625 1198.839844 984.496094 1200.703125 983.042969 C 1206.453125 978.550781 1237.285156 948.574219 1244.792969 940.175781 C 1246.769531 937.964844 1249.800781 934.628906 1251.53125 932.765625 C 1253.257812 930.902344 1255.679688 928.144531 1256.917969 926.640625 C 1258.152344 925.132812 1261.769531 920.71875 1264.957031 916.832031 C 1268.140625 912.945312 1271.175781 909.257812 1271.699219 908.636719 C 1275.738281 903.859375 1287.292969 887.832031 1295.992188 874.945312 C 1299.746094 869.386719 1303.679688 863.773438 1304.738281 862.46875 C 1305.796875 861.164062 1306.972656 859.519531 1307.351562 858.820312 C 1308.113281 857.402344 1311.214844 852.648438 1311.660156 852.207031 C 1311.816406 852.050781 1312.246094 851.421875 1312.609375 850.804688 C 1325.207031 829.449219 1330.507812 819.449219 1339.554688 799.984375 C 1343.445312 791.613281 1350.546875 774.222656 1353.886719 764.890625 C 1357.25 755.492188 1363.875 735.335938 1364.199219 733.507812 C 1364.363281 732.617188 1364.710938 731.480469 1364.972656 730.980469 C 1366.425781 728.234375 1373.964844 695.726562 1377.089844 678.714844 C 1377.234375 677.933594 1377.488281 676.660156 1377.652344 675.890625 C 1377.820312 675.117188 1378.199219 672.84375 1378.496094 670.835938 C 1378.796875 668.828125 1379.285156 665.796875 1379.582031 664.097656 C 1387.816406 617.359375 1387.214844 531.488281 1378.457031 503.183594 C 1378.164062 502.234375 1377.925781 501.066406 1377.925781 500.589844 C 1377.925781 496.089844 1365.128906 454.15625 1361.722656 447.511719 C 1361.441406 446.960938 1360.902344 445.75 1360.523438 444.824219 C 1360.148438 443.898438 1359.492188 442.382812 1359.074219 441.457031 C 1358.65625 440.53125 1357.285156 437.40625 1356.03125 434.515625 C 1353.644531 429.027344 1346.472656 414.445312 1344.25 410.570312 C 1343.539062 409.335938 1342.269531 407.0625 1341.429688 405.519531 C 1338.273438 399.734375 1328.945312 384.421875 1326.886719 381.652344 C 1326.082031 380.570312 1325.167969 379.253906 1324.863281 378.730469 C 1323.914062 377.125 1314.464844 363.660156 1311.152344 359.191406 C 1309.4375 356.878906 1307.84375 354.726562 1307.617188 354.417969 C 1307.390625 354.113281 1306.3125 352.847656 1305.226562 351.613281 C 1304.140625 350.375 1303.246094 349.199219 1303.246094 348.996094 C 1303.242188 348.632812 1301.621094 346.601562 1296.589844 340.671875 C 1289.941406 332.835938 1284.238281 326.679688 1274.734375 317.078125 C 1265.988281 308.242188 1261.738281 304.246094 1252.945312 296.585938 C 1252.238281 295.964844 1250.804688 294.699219 1249.753906 293.773438 C 1247.15625 291.476562 1237.328125 283.445312 1233.40625 280.417969 C 1232.519531 279.734375 1231.21875 278.671875 1230.515625 278.054688 C 1227.0625 275.011719 1222.539062 271.636719 1212.824219 264.855469 C 1209.058594 262.234375 1205.660156 259.78125 1205.265625 259.410156 C 1204.441406 258.632812 1180.339844 243.519531 1179.925781 243.519531 C 1179.777344 243.519531 1178.128906 242.511719 1176.269531 241.273438 C 1174.410156 240.035156 1172.757812 239.027344 1172.59375 239.027344 C 1172.433594 239.027344 1171.632812 238.554688 1170.808594 237.972656 C 1164.019531 233.171875 1126.046875 213.957031 1112.324219 208.378906 C 1110.511719 207.644531 1107.320312 206.257812 1105.238281 205.304688 C 1101.691406 203.679688 1095.90625 201.382812 1085.09375 197.308594 C 1077.542969 194.460938 1051.679688 185.78125 1051.679688 186.089844 C 1051.679688 186.253906 1051.367188 186.136719 1050.980469 185.835938 C 1050.429688 185.414062 1045.8125 183.917969 1044.382812 183.703125 C 1044.230469 183.679688 1042.585938 183.203125 1040.730469 182.644531 C 1029.554688 179.269531 1000.566406 172.429688 985.984375 169.726562 C 983.359375 169.238281 980.578125 168.699219 979.808594 168.523438 C 960.628906 164.226562 919.15625 159.535156 882.945312 157.574219 C 868.984375 156.820312 790.179688 156.445312 772.886719 157.050781 M 676.585938 396.273438 C 658.289062 397.4375 637.96875 399.628906 624.085938 401.933594 C 620.378906 402.550781 615.832031 403.28125 613.980469 403.558594 C 612.125 403.839844 608.710938 404.492188 606.398438 405.003906 C 604.082031 405.515625 601.175781 406.121094 599.941406 406.351562 C 589.511719 408.300781 568.578125 413.449219 554.175781 417.609375 C 532.71875 423.804688 497.523438 436.449219 483.140625 443.128906 C 480.984375 444.132812 476.054688 446.304688 472.191406 447.957031 C 464.808594 451.113281 439.132812 463.898438 431.484375 468.226562 C 424.042969 472.4375 421.496094 473.867188 418.945312 475.25 C 417.601562 475.976562 414.066406 478.113281 411.082031 480 C 408.09375 481.886719 404.769531 483.933594 403.6875 484.550781 C 402.605469 485.164062 397.679688 488.355469 392.738281 491.640625 C 387.796875 494.921875 383.5 497.707031 383.195312 497.832031 C 382.882812 497.957031 382.503906 498.226562 382.351562 498.429688 C 382.195312 498.636719 378.53125 501.304688 374.207031 504.363281 C 369.886719 507.421875 363.316406 512.328125 359.609375 515.265625 C 355.902344 518.207031 351.683594 521.511719 350.226562 522.613281 C 348.773438 523.714844 346.75 525.359375 345.726562 526.273438 C 344.707031 527.183594 342.609375 528.9375 341.074219 530.175781 C 339.535156 531.410156 337 533.558594 335.441406 534.949219 C 333.882812 536.335938 330.484375 539.371094 327.890625 541.6875 C 316.542969 551.8125 292.121094 576.371094 285.617188 584.195312 C 284.539062 585.492188 283.308594 586.90625 282.886719 587.34375 C 282.464844 587.773438 280.980469 589.464844 279.59375 591.097656 C 278.203125 592.738281 276.8125 594.355469 276.503906 594.695312 C 275.367188 595.949219 272.523438 599.359375 270.824219 601.515625 C 269.859375 602.734375 266.054688 607.523438 262.367188 612.15625 C 253.199219 623.671875 230.179688 656.226562 230.179688 657.675781 C 230.179688 657.835938 229.714844 658.648438 229.148438 659.488281 C 225.28125 665.195312 216.703125 678.988281 216.703125 679.5 C 216.703125 679.621094 214.933594 682.796875 212.769531 686.558594 C 210.609375 690.324219 208.84375 693.578125 208.84375 693.796875 C 208.84375 694.011719 208.460938 694.6875 207.996094 695.289062 C 204.3125 700.085938 185.75 738.570312 177.003906 759.554688 C 168.101562 780.917969 167.0625 783.585938 162.433594 796.898438 C 159.777344 804.527344 154.464844 820.890625 154.089844 822.585938 C 153.972656 823.128906 153.757812 823.765625 153.609375 824.007812 C 153.121094 824.792969 147.425781 846.363281 146.238281 851.925781 C 145.773438 854.089844 144.894531 858.214844 144.277344 861.097656 C 136.566406 897.238281 133.355469 944.824219 136.707031 973.214844 C 136.851562 974.449219 137.363281 979 137.84375 983.320312 C 140.285156 1005.296875 146.660156 1033.796875 153.160156 1051.824219 C 161.300781 1074.394531 164.457031 1081.820312 173.09375 1098.714844 C 178.300781 1108.898438 187.535156 1125.261719 189.90625 1128.507812 C 190.460938 1129.261719 193.246094 1133.414062 196.101562 1137.738281 C 202.464844 1147.382812 204.214844 1149.863281 208.742188 1155.65625 C 210.695312 1158.15625 212.96875 1161.078125 213.792969 1162.152344 C 216.523438 1165.6875 220.273438 1170.277344 222.066406 1172.273438 C 223.035156 1173.351562 225.953125 1176.636719 228.546875 1179.558594 C 236.886719 1188.964844 252.582031 1204.359375 263.84375 1214.171875 C 265.21875 1215.375 266.742188 1216.730469 267.226562 1217.195312 C 267.714844 1217.65625 269.207031 1218.921875 270.546875 1220.003906 C 271.886719 1221.082031 274.28125 1223.03125 275.867188 1224.328125 C 277.453125 1225.625 281.53125 1228.863281 284.925781 1231.519531 C 288.324219 1234.175781 291.558594 1236.722656 292.109375 1237.175781 C 292.664062 1237.628906 294.8125 1239.179688 296.882812 1240.621094 C 298.957031 1242.0625 302.796875 1244.789062 305.421875 1246.679688 C 310.820312 1250.566406 322.304688 1258.273438 326.386719 1260.75 C 327.882812 1261.65625 329.777344 1262.832031 330.597656 1263.363281 C 331.421875 1263.894531 332.851562 1264.75 333.777344 1265.269531 C 334.707031 1265.785156 336.953125 1267.195312 338.773438 1268.398438 C 340.589844 1269.605469 343.117188 1271.175781 344.386719 1271.894531 C 345.65625 1272.609375 349.550781 1274.871094 353.042969 1276.921875 C 356.535156 1278.96875 359.507812 1280.644531 359.652344 1280.644531 C 359.796875 1280.644531 360.851562 1281.234375 362.003906 1281.949219 C 364.015625 1283.199219 368.050781 1285.394531 381.507812 1292.554688 C 405.839844 1305.492188 433.597656 1318.078125 462.648438 1329.335938 C 469.835938 1332.125 504.761719 1344.082031 504.761719 1343.753906 C 504.761719 1343.640625 505.707031 1343.890625 506.867188 1344.316406 C 508.027344 1344.738281 510.363281 1345.496094 512.0625 1345.992188 C 513.761719 1346.496094 516.414062 1347.304688 517.957031 1347.792969 C 521.976562 1349.070312 545.988281 1355.121094 553.613281 1356.785156 C 564.03125 1359.054688 576.246094 1361.625 577.761719 1361.863281 C 580.449219 1362.289062 581.417969 1362.476562 582.8125 1362.832031 C 583.585938 1363.03125 585.101562 1363.3125 586.183594 1363.453125 C 587.261719 1363.597656 591.808594 1364.328125 596.289062 1365.078125 C 600.769531 1365.824219 605.820312 1366.585938 607.519531 1366.769531 C 609.21875 1366.949219 611.21875 1367.226562 611.964844 1367.378906 C 612.707031 1367.527344 618.015625 1368.171875 623.753906 1368.804688 C 629.496094 1369.441406 635.203125 1370.074219 636.4375 1370.214844 C 683.539062 1375.613281 754.558594 1373.53125 807.984375 1365.195312 C 810.222656 1364.84375 814.925781 1364.152344 815.84375 1364.039062 C 818.273438 1363.730469 825.558594 1362.457031 828.761719 1361.773438 C 830.765625 1361.347656 835.945312 1360.335938 840.269531 1359.53125 C 848.363281 1358.023438 869.84375 1353.425781 872.839844 1352.558594 C 873.765625 1352.292969 876.417969 1351.652344 878.734375 1351.128906 C 881.050781 1350.609375 884.585938 1349.722656 886.59375 1349.160156 C 888.601562 1348.59375 892.773438 1347.457031 895.859375 1346.628906 C 912.910156 1342.046875 949.644531 1330.089844 960.714844 1325.507812 C 962.105469 1324.9375 967.539062 1322.800781 972.789062 1320.765625 C 978.039062 1318.730469 983.40625 1316.578125 984.714844 1315.980469 C 986.023438 1315.386719 987.25 1314.898438 987.4375 1314.898438 C 987.628906 1314.898438 988.578125 1314.535156 989.546875 1314.089844 C 990.519531 1313.644531 994.023438 1312.136719 997.324219 1310.742188 C 1000.628906 1309.347656 1003.785156 1307.953125 1004.34375 1307.644531 C 1005.824219 1306.816406 1020.828125 1299.738281 1021.101562 1299.738281 C 1021.648438 1299.738281 1042.757812 1289.320312 1046.066406 1287.414062 C 1048.074219 1286.257812 1052.878906 1283.660156 1056.734375 1281.640625 C 1060.597656 1279.617188 1065.144531 1277.167969 1066.84375 1276.195312 C 1068.539062 1275.226562 1070.566406 1274.128906 1071.335938 1273.761719 C 1072.109375 1273.390625 1072.867188 1272.929688 1073.019531 1272.742188 C 1073.171875 1272.550781 1074.503906 1271.726562 1075.972656 1270.914062 C 1079.835938 1268.773438 1093.503906 1260.652344 1097.445312 1258.152344 C 1099.300781 1256.976562 1101.511719 1255.707031 1102.359375 1255.328125 C 1103.207031 1254.945312 1103.902344 1254.464844 1103.902344 1254.257812 C 1103.902344 1254.042969 1104.496094 1253.601562 1105.21875 1253.277344 C 1107.371094 1252.296875 1133.304688 1235.238281 1140.121094 1230.320312 C 1142.285156 1228.761719 1146.832031 1225.554688 1150.226562 1223.191406 C 1153.628906 1220.835938 1157.140625 1218.265625 1158.039062 1217.484375 C 1158.933594 1216.707031 1159.832031 1216.070312 1160.035156 1216.070312 C 1160.242188 1216.070312 1160.894531 1215.628906 1161.496094 1215.085938 C 1162.09375 1214.542969 1163.125 1213.726562 1163.785156 1213.265625 C 1167.242188 1210.847656 1179.3125 1201.527344 1188.398438 1194.257812 C 1194.058594 1189.734375 1199.652344 1185.273438 1200.824219 1184.347656 C 1201.996094 1183.421875 1204.003906 1181.777344 1205.285156 1180.695312 C 1206.566406 1179.613281 1209.34375 1177.339844 1211.457031 1175.640625 C 1213.574219 1173.941406 1215.839844 1172.050781 1216.5 1171.429688 C 1217.152344 1170.8125 1219.152344 1169.066406 1220.941406 1167.542969 C 1222.734375 1166.023438 1225.117188 1163.902344 1226.238281 1162.835938 C 1227.359375 1161.765625 1231.816406 1157.84375 1236.140625 1154.117188 C 1240.464844 1150.386719 1244.523438 1146.820312 1245.15625 1146.1875 C 1246.476562 1144.871094 1247.691406 1143.800781 1256.792969 1135.898438 C 1270.007812 1124.425781 1275.726562 1119.253906 1275.726562 1118.785156 C 1275.726562 1118.265625 1275.488281 1118.386719 1272.078125 1120.660156 C 1270.84375 1121.484375 1267.304688 1123.535156 1264.21875 1125.21875 C 1261.128906 1126.902344 1257.65625 1128.832031 1256.496094 1129.5 C 1253.785156 1131.070312 1251.515625 1132.351562 1247.496094 1134.585938 C 1245.710938 1135.574219 1243.058594 1137.117188 1241.601562 1138.011719 C 1238.566406 1139.871094 1235.902344 1141.398438 1220.699219 1149.976562 C 1214.675781 1153.375 1205.453125 1158.738281 1200.207031 1161.894531 C 1194.953125 1165.050781 1187.121094 1169.335938 1182.796875 1171.417969 C 1178.472656 1173.496094 1171.398438 1176.902344 1167.074219 1178.988281 C 1157.632812 1183.539062 1154.839844 1184.84375 1147.140625 1188.28125 C 1143.898438 1189.730469 1138.71875 1192.125 1135.628906 1193.609375 C 1132.539062 1195.085938 1128.121094 1197.105469 1125.800781 1198.085938 C 1118.929688 1201.003906 1117.714844 1201.523438 1116.535156 1202.0625 C 1114.980469 1202.769531 1098.507812 1209.273438 1095.761719 1210.257812 C 1094.527344 1210.703125 1092.757812 1211.410156 1091.832031 1211.828125 C 1086.230469 1214.355469 1065.988281 1220.96875 1049.4375 1225.679688 C 1032.445312 1230.515625 1031.777344 1230.699219 1030.503906 1230.917969 C 1029.820312 1231.03125 1028.050781 1231.523438 1026.574219 1232.003906 C 1022.535156 1233.320312 1005.320312 1237.328125 989.074219 1240.734375 C 980.054688 1242.625 966.441406 1245.308594 961.714844 1246.121094 C 953.71875 1247.496094 949.625 1248.15625 948.921875 1248.179688 C 948.460938 1248.191406 947.050781 1248.421875 945.785156 1248.683594 C 944.523438 1248.949219 942.5 1249.296875 941.296875 1249.457031 C 940.085938 1249.613281 938.464844 1249.875 937.695312 1250.035156 C 931.789062 1251.257812 903.035156 1254.40625 886.59375 1255.628906 C 836.832031 1259.335938 779.152344 1257.59375 737.585938 1251.125 C 734.453125 1250.640625 731.140625 1250.152344 730.214844 1250.042969 C 717.21875 1248.488281 665.492188 1237.699219 649.351562 1233.175781 C 646.570312 1232.398438 642.785156 1231.367188 640.929688 1230.886719 C 639.078125 1230.40625 637.308594 1229.945312 637 1229.863281 C 636.691406 1229.78125 636.058594 1229.585938 635.59375 1229.417969 C 635.132812 1229.253906 633.742188 1228.835938 632.507812 1228.488281 C 580.71875 1213.964844 540.109375 1195.859375 505.324219 1171.789062 C 497.5625 1166.417969 486.140625 1157.816406 485.109375 1156.558594 C 484.953125 1156.371094 482.300781 1154.089844 479.214844 1151.492188 C 476.125 1148.890625 473.34375 1146.484375 473.035156 1146.140625 C 472.726562 1145.800781 470.324219 1143.492188 467.703125 1141.015625 C 462.039062 1135.671875 452.585938 1125.902344 447.488281 1120.128906 C 445.480469 1117.851562 443.578125 1115.703125 443.257812 1115.355469 C 441.1875 1113.0625 434.351562 1104.621094 432.324219 1101.835938 C 430.984375 1100.003906 429.5625 1098.109375 429.164062 1097.625 C 428 1096.222656 417.964844 1081.609375 416.207031 1078.753906 C 414.605469 1076.15625 411.726562 1071.402344 410.472656 1069.28125 C 409.730469 1068.019531 408.65625 1066.230469 408.089844 1065.300781 C 406.675781 1062.980469 397.523438 1044.734375 395.671875 1040.546875 C 394.839844 1038.667969 393.480469 1035.632812 392.648438 1033.808594 C 391.8125 1031.980469 391.09375 1030.363281 391.046875 1030.210938 C 391 1030.054688 390.640625 1029.167969 390.246094 1028.242188 C 385.859375 1017.910156 379.265625 997.085938 375.929688 983.042969 C 374.792969 978.253906 373.5 972.820312 373.058594 970.96875 C 372.617188 969.113281 372.152344 966.96875 372.03125 966.195312 C 371.90625 965.425781 371.410156 962.640625 370.921875 960.015625 C 363.832031 921.527344 364.011719 854.539062 371.289062 823.289062 C 371.433594 822.671875 371.722656 820.773438 371.933594 819.078125 C 372.148438 817.378906 372.539062 815.230469 372.8125 814.304688 C 373.082031 813.375 373.4375 811.734375 373.601562 810.65625 C 373.765625 809.574219 374.546875 805.910156 375.332031 802.511719 C 376.121094 799.113281 377.015625 795.070312 377.316406 793.527344 C 377.617188 791.984375 378.371094 788.949219 378.984375 786.789062 C 383.101562 772.273438 384.347656 768.046875 386.339844 761.800781 C 387.578125 757.941406 388.953125 753.984375 389.398438 753.011719 C 389.84375 752.042969 390.210938 750.855469 390.210938 750.378906 C 390.210938 749.902344 390.4375 749.375 390.710938 749.203125 C 390.988281 749.035156 391.382812 748.199219 391.601562 747.347656 C 392.066406 745.496094 399.632812 726.210938 401.460938 722.214844 C 406.015625 712.265625 412.527344 698.90625 415.003906 694.417969 C 416.113281 692.410156 418.09375 688.75 419.40625 686.277344 C 421.421875 682.484375 424.597656 676.976562 426.699219 673.640625 C 426.988281 673.179688 428.539062 670.652344 430.144531 668.03125 C 433.804688 662.027344 443.554688 647.320312 446.335938 643.601562 C 447.492188 642.058594 451.066406 637.261719 454.277344 632.945312 C 461.773438 622.875 475.960938 605.832031 484.390625 596.773438 C 494.457031 585.957031 511.808594 569.058594 519.644531 562.449219 C 522.113281 560.363281 525.144531 557.730469 526.382812 556.597656 C 535.234375 548.472656 567.316406 524.578125 577.6875 518.382812 C 578.203125 518.074219 579.378906 517.289062 580.296875 516.636719 C 582.617188 514.996094 601.386719 503.777344 605.835938 501.371094 C 607.84375 500.289062 610.371094 498.847656 611.453125 498.171875 C 612.53125 497.496094 619.734375 493.847656 627.457031 490.058594 C 645.640625 481.140625 647.167969 480.425781 653.84375 477.671875 C 656.933594 476.394531 659.96875 475.125 660.582031 474.847656 C 663.007812 473.761719 681.554688 466.820312 684.730469 465.804688 C 686.582031 465.214844 688.855469 464.386719 689.785156 463.960938 C 691.472656 463.183594 697.125 461.394531 709.15625 457.820312 C 716.820312 455.542969 736.355469 450.691406 745.652344 448.757812 C 747.972656 448.273438 750.5 447.746094 751.269531 447.578125 C 752.042969 447.410156 753.050781 447.210938 753.515625 447.136719 C 753.980469 447.0625 755.242188 446.828125 756.324219 446.613281 C 757.402344 446.402344 759.046875 446.09375 759.972656 445.9375 C 760.898438 445.777344 764.4375 445.144531 767.832031 444.535156 C 818.1875 435.511719 852.429688 432.3125 899.765625 432.203125 C 907.804688 432.1875 907.664062 431.90625 898.105469 428.917969 C 888.757812 425.992188 883.9375 424.378906 881.824219 423.460938 C 880.898438 423.0625 879.382812 422.554688 878.453125 422.34375 C 877.527344 422.128906 875.253906 421.457031 873.402344 420.851562 C 864.492188 417.941406 829.613281 409.117188 817.527344 406.714844 C 816.753906 406.558594 814.734375 406.140625 813.035156 405.78125 C 807.0625 404.515625 805.433594 404.199219 802.929688 403.839844 C 801.539062 403.636719 799.390625 403.257812 798.15625 402.992188 C 791.519531 401.5625 767.371094 398.570312 750.144531 397.042969 C 738.664062 396.023438 688.699219 395.5 676.585938 396.273438 " fill-opacity="1" fill-rule="evenodd"/><path fill="#ffffff" d="M 677.007812 281.539062 C 677.703125 281.671875 678.839844 281.671875 679.535156 281.539062 C 680.230469 281.402344 679.660156 281.296875 678.273438 281.296875 C 676.882812 281.296875 676.3125 281.402344 677.007812 281.539062 M 703.960938 281.539062 C 704.65625 281.671875 705.792969 281.671875 706.488281 281.539062 C 707.183594 281.402344 706.613281 281.296875 705.222656 281.296875 C 703.835938 281.296875 703.265625 281.402344 703.960938 281.539062 M 306.238281 562.039062 L 304.019531 564.429688 L 306.40625 562.207031 C 308.625 560.144531 309.050781 559.65625 308.625 559.65625 C 308.535156 559.65625 307.460938 560.730469 306.238281 562.039062 M 1063.160156 933.769531 L 1061.507812 935.589844 L 1063.335938 933.945312 C 1065.035156 932.40625 1065.417969 931.941406 1064.980469 931.941406 C 1064.882812 931.941406 1064.066406 932.765625 1063.160156 933.769531 M 1225.445312 960.160156 L 1223.226562 962.542969 L 1225.613281 960.328125 C 1227.832031 958.261719 1228.257812 957.773438 1227.832031 957.773438 C 1227.742188 957.773438 1226.667969 958.84375 1225.445312 960.160156 " fill-opacity="1" fill-rule="evenodd"/><path fill="#ffffff" d="M 677.007812 281.539062 C 677.703125 281.671875 678.839844 281.671875 679.535156 281.539062 C 680.230469 281.402344 679.660156 281.296875 678.273438 281.296875 C 676.882812 281.296875 676.3125 281.402344 677.007812 281.539062 M 703.960938 281.539062 C 704.65625 281.671875 705.792969 281.671875 706.488281 281.539062 C 707.183594 281.402344 706.613281 281.296875 705.222656 281.296875 C 703.835938 281.296875 703.265625 281.402344 703.960938 281.539062 M 306.238281 562.039062 L 304.019531 564.429688 L 306.40625 562.207031 C 308.625 560.144531 309.050781 559.65625 308.625 559.65625 C 308.535156 559.65625 307.460938 560.730469 306.238281 562.039062 M 1063.160156 933.769531 L 1061.507812 935.589844 L 1063.335938 933.945312 C 1065.035156 932.40625 1065.417969 931.941406 1064.980469 931.941406 C 1064.882812 931.941406 1064.066406 932.765625 1063.160156 933.769531 M 1225.445312 960.160156 L 1223.226562 962.542969 L 1225.613281 960.328125 C 1227.832031 958.261719 1228.257812 957.773438 1227.832031 957.773438 C 1227.742188 957.773438 1226.667969 958.84375 1225.445312 960.160156 " fill-opacity="1" fill-rule="evenodd"/><path fill="#ffffff" d="M 677.007812 281.539062 C 677.703125 281.671875 678.839844 281.671875 679.535156 281.539062 C 680.230469 281.402344 679.660156 281.296875 678.273438 281.296875 C 676.882812 281.296875 676.3125 281.402344 677.007812 281.539062 M 703.960938 281.539062 C 704.65625 281.671875 705.792969 281.671875 706.488281 281.539062 C 707.183594 281.402344 706.613281 281.296875 705.222656 281.296875 C 703.835938 281.296875 703.265625 281.402344 703.960938 281.539062 M 306.238281 562.039062 L 304.019531 564.429688 L 306.40625 562.207031 C 308.625 560.144531 309.050781 559.65625 308.625 559.65625 C 308.535156 559.65625 307.460938 560.730469 306.238281 562.039062 M 1063.160156 933.769531 L 1061.507812 935.589844 L 1063.335938 933.945312 C 1065.035156 932.40625 1065.417969 931.941406 1064.980469 931.941406 C 1064.882812 931.941406 1064.066406 932.765625 1063.160156 933.769531 M 1225.445312 960.160156 L 1223.226562 962.542969 L 1225.613281 960.328125 C 1227.832031 958.261719 1228.257812 957.773438 1227.832031 957.773438 C 1227.742188 957.773438 1226.667969 958.84375 1225.445312 960.160156 " fill-opacity="1" fill-rule="evenodd"/><path fill="#ffffff" d="M 677.007812 281.539062 C 677.703125 281.671875 678.839844 281.671875 679.535156 281.539062 C 680.230469 281.402344 679.660156 281.296875 678.273438 281.296875 C 676.882812 281.296875 676.3125 281.402344 677.007812 281.539062 M 703.960938 281.539062 C 704.65625 281.671875 705.792969 281.671875 706.488281 281.539062 C 707.183594 281.402344 706.613281 281.296875 705.222656 281.296875 C 703.835938 281.296875 703.265625 281.402344 703.960938 281.539062 M 306.238281 562.039062 L 304.019531 564.429688 L 306.40625 562.207031 C 308.625 560.144531 309.050781 559.65625 308.625 559.65625 C 308.535156 559.65625 307.460938 560.730469 306.238281 562.039062 M 1063.160156 933.769531 L 1061.507812 935.589844 L 1063.335938 933.945312 C 1065.035156 932.40625 1065.417969 931.941406 1064.980469 931.941406 C 1064.882812 931.941406 1064.066406 932.765625 1063.160156 933.769531 M 1225.445312 960.160156 L 1223.226562 962.542969 L 1225.613281 960.328125 C 1227.832031 958.261719 1228.257812 957.773438 1227.832031 957.773438 C 1227.742188 957.773438 1226.667969 958.84375 1225.445312 960.160156 " fill-opacity="1" fill-rule="evenodd"/></svg>